<svg xmlns="http://www.w3.org/2000/svg" xmlns:xlink="http://www.w3.org/1999/xlink" width="362.504" height="58.168" viewBox="0 -1881.7 20028.5 3213.9" fill="white"><defs><path id="a" d="M33 157q0 101 76 192t171 92q51 0 90-49 16 30 46 30 13 0 23-8t10-20q0-13-37-160T374 68q0-25 7-33t21-9q9 1 20 9 21 20 41 96 6 20 10 21 2 1 10 1h4q19 0 19-9 0-6-5-27t-20-54-32-50Q436 0 417-8q-8-2-24-2-34 0-57 15t-30 31l-6 15q-1 1-4-1l-4-4q-59-56-120-56-55 0-97 40T33 157Zm318 171q0 6-5 22t-23 35-46 20q-35 0-67-31t-50-81q-29-79-41-164v-11q0-8-1-12 0-45 18-62t43-18q38 0 75 33t44 51q2 4 27 107t26 111Z"/><path id="b" d="M94 250q0 69 10 131t23 107 37 88 38 67 42 52 33 34 25 21h17q14 0 14-9 0-3-17-21t-41-53-49-86-42-138-17-193 17-192 41-139 49-86 42-53 17-21q0-9-15-9h-16l-28 24q-94 85-137 212T94 250Z"/><path id="c" d="M228 637q-34 0-36 4-1 2-1 8 0 24 11 33 2 1 15 1 54-3 127-3 141 0 162 3h12q6-6 6-9t-2-18q-5-15-9-19h-38q-69-1-81-9-7-4-14-28t-67-264q-16-65-34-138T252 88l-9-36q0-4 9-4t59-2h17q32 0 51 1t49 7 50 18 44 34 42 55q16 30 30 67t17 42q5 3 17 3h13q6-9 6-11t-20-59-44-120-26-74q-2-5-4-6t-16-3-43-1h-76q-65 0-124 1H116Q32 0 32 10q0 7 2 14 5 19 10 21 4 1 15 1h6q27 0 60 3 14 3 19 12 3 4 72 278t69 289q0 7-57 9Z"/><path id="d" d="m60 749 4 1h22l28-24q94-85 137-212t43-264q0-68-10-131T261 12t-37-88-38-67-41-51-32-33-23-19l-4-4H63q-3 0-5 3t-3 9q1 1 11 13Q221-64 221 250T66 725q-10 12-11 13 0 8 5 11Z"/><path id="e" d="M121 647q0 10 4 23t12 13q1 0 72 5t73 6q12 0 12-8 0-7-50-209-50-198-50-205 19 10 29 19 24 18 69 63t70 61q40 27 76 27 30 0 47-19t18-54q0-25-7-42t-19-25-21-11-18-3q-20 0-32 11t-12 29q0 25 16 41t32 21l16 3q-12 12-24 12h-4q-32-3-63-25t-73-64-66-61q2-1 15-3t24-6 26-8 27-14 22-18 17-26 6-33q0-17-5-41t-6-40q0-40 27-40 48 0 78 119 2 8 20 8h4q16 0 16-9 0-5-3-14Q455-11 378-11q-45 0-73 26t-28 75q0 18 3 31t3 24q0 22-14 38t-35 23-34 11-18 3h-2q-12-42-21-81t-14-58-9-37-7-24-7-13-11-9q-13-9-28-9-17 0-26 10t-9 17q0 10 37 160t73 295l37 145q1 13-7 16t-39 5h-18q-3 0-7 3t-3 7Z"/><path id="f" d="M56 347q0 13 14 20h637q15-8 15-20 0-11-14-19l-318-1H72q-16 5-16 20Zm0-194q0 15 16 20h636q14-10 14-20 0-13-15-20H70q-14 7-14 20Z"/><path id="g" d="M184-11q-68 0-110 45T31 147q0 100 73 186t170 97q1 1 140 1h138q1-1 3-2t4-2 3-2 3-3 2-2 2-4 1-4 1-5 1-6q0-44-65-44h-17q-10 0-14 1h-60l5-10q18-38 18-85 0-110-80-192T184-11Zm177 289q0 80-85 80-124 0-161-174-1-4-1-6-8-37-8-61 0-50 25-70t57-21q54 0 99 47 29 30 47 80t22 80 5 45Z"/><path id="h" d="M180 96v154l25 291 61 229 87 174 91 125 83 81h28q6-6 6-9 0-4-16-21t-41-48-57-77-61-117-56-157-42-208-16-262q0-118 8-195 13-143 46-265t73-196 76-126 61-78 25-31q0-3-6-9h-28q-44 37-84 81t-90 125-87 173-61 229Z"/><path id="i" d="M347 338q-10 0-53 11t-63 11q-20 0-34-4t-23-10-12-11-7-11l-2-4q-3-3-15-3-21 0-21 8 0 5 3 14 13 39 43 67t66 34q12 2 17 2 25 0 45-17t38-33 38-17q22 0 44 33t23 33q1 1 15 1h13q6-6 6-8 0-4-5-14t-14-21-17-22-14-19l-7-9q-43-51-136-135T160 106l-12-12 15-1q22 0 64-11t63-11q38 0 70 19t42 50q4 9 7 11t15 2q19 0 19-10 0-5-1-9-17-62-66-103t-98-42q-26 0-46 17t-39 34-38 17q-44 0-79-60-6-8-17-8H41q-6 6-6 9 0 15 58 86 39 45 132 130t115 108q12 16 7 16Z"/><path id="j" d="M35 1138q0 12 16 12h18q44-37 84-81t90-125 87-173 61-230 25-291-25-290-61-230-87-173-91-125-83-81H56q-13 0-17 2t-4 10q30 30 75 89Q283-316 316 56q8 77 8 195 0 117-8 194-38 432-268 678-12 14-13 15Z"/><path id="k" d="M758-1237v-3l-6-9h-16q-18 0-19 1-6 3-45 49Q237-706 237 251t435 1449q25 30 44 49 2 1 19 1h17q6-6 6-9 0-4-18-28t-51-69-70-107-79-157-77-204Q348 802 348 251q0-493 93-850t303-619q14-19 14-22Z"/><path id="l" d="M73 647q0 10 4 23t12 13q1 0 72 5t73 6q12 0 12-9t-34-143q-8-34-17-70t-15-54l-4-19q0-3 6 3 49 40 101 40 62 0 100-46t39-116q0-111-79-201T173-11q-50 0-91 38T40 150v9q0 21 8 58t49 197q50 197 50 209t-38 14H83q-3 0-7 3t-3 7Zm263-322v6q0 74-61 74-17 0-35-8t-33-21-26-24-18-22l-6-8-21-86q-22-86-22-122 0-48 24-72 16-16 40-16 33 0 67 32 25 23 40 56t33 105q18 72 18 106Z"/><path id="m" d="M56 237v13l14 20h299v150l1 150q10 13 19 13 13 0 20-15V270h298q15-8 15-20t-15-20H409V-68q-8-14-18-14h-4q-12 0-18 14v298H70q-14 7-14 20Z"/><path id="n" d="M60 948q3 2 605 2h602l58-135q59-138 63-146h-40l-7 14q-21 41-56 78-50 48-111 77t-141 43-151 17-183 4H251l8-11q463-633 465-639 1-2 0-6-3-3-264-302L196-356q0-1 211-1h141q89 0 128-1 136 0 220 5t167 21 141 49 103 87q21 26 41 72h40q0-1-7-21t-25-65-31-84l-58-155-601-1q-602 0-605 2-6 2-6 9 0 2 2 6l533 610q0 1-33 45T452 366 322 544L56 909l-1 15q0 21 5 24Z"/><path id="o" d="M297 596q0 31 21 48t43 17q17 0 28-10t14-28q0-28-19-47t-44-19q-18 0-30 10t-13 29Zm-9-220q0 29-26 29-22 0-42-12t-35-31-24-37-17-32l-7-14q-2-1-16-1h-14q-6 6-6 8t4 13q21 49 59 92t88 50h8q7 0 12 1 24-1 44-10 25-14 38-31t13-53v-16l-49-199Q267-67 264-75q-18-50-70-89T75-204q-50 0-68 21t-19 46q0 27 19 46t46 20q17 0 29-10t13-31q0-36-32-55 6-1 14-1 34 0 62 28t43 66l11 42q11 43 26 104t32 125 27 111 11 57q0 7-1 11Z"/><path id="p" d="m213 578-13-5q-14-5-40-10t-58-7H83v46h19q47 2 87 15t56 24 28 22q2 3 12 3 9 0 17-6V361l1-300q7-7 12-9t24-4 62-2h26V0h-11q-21 3-159 3-136 0-157-3H88v46h64q16 0 25 1t16 3 8 2 6 5 6 4v517Z"/><path id="q" d="M21 287q1 6 3 16t12 38 20 47 33 37 46 17q36 0 60-18t30-34 6-21q0-2 1-2l11 11q61 64 139 64 54 0 87-27t34-79-38-157-38-127q0-26 17-26 6 0 9 1 29 5 52 38t35 80q2 8 20 8 20 0 20-8 0-1-4-15-8-29-22-57t-46-56-69-27q-47 0-68 27t-21 56q0 19 36 120t37 152q0 59-44 59h-5q-86 0-145-101l-7-12-33-134Q156 26 151 16q-13-27-43-27-13 0-21 6T76 7t-2 10q0 13 38 163t40 163q1 5 1 23 0 39-24 39-38 0-63-100-6-20-6-21-2-6-19-6H27q-6 6-6 9Z"/><path id="r" d="M84 237v13l14 20h581q15-8 15-20t-15-20H98q-14 7-14 20Z"/><path id="s" d="M580 385q0 21 19 39t42 19q18 0 33-18t16-57q0-29-19-115-15-56-27-92t-35-81-55-68-72-23q-44 0-78 16t-49 43q-1-1-3-4-41-55-100-55-26 0-50 6t-47 19-37 39-14 63q0 54 34 146t35 117v14q0 3-4 7t-11 4h-4q-23 0-42-19t-30-41-17-42-8-22q-2-2-16-2H27q-6 6-6 9 0 6 8 28t23 51 44 52 65 23q43 0 66-25t23-58q0-18-33-108t-33-139q0-46 21-65t53-20q43 0 76 61l5 9v32q0 6 1 8t1 7 1 9 3 13 3 17 6 24 8 32 11 43q29 114 33 123 13 27 43 27 19 0 26-10t8-19q0-13-29-128t-32-132q-2-11-2-35v-7q0-15 3-29t19-29 45-16q71 0 113 122 9 23 20 65t12 60q0 33-13 52t-26 32-13 28Z"/><path id="t" d="M78 250q0 24 17 42t43 18q24 0 42-16t19-43q0-25-17-43t-43-18-43 17-18 43Z"/><path id="u" d="M33 1741q0 9 18 9h14q8 0 16-7t38-43q435-493 435-1449 0-958-435-1450-43-51-53-51h-4q-3 0-6 1h-3q-2 0-4-1-16 0-16 11 0 3 17 25t48 64 65 98 75 142 73 183q132 392 132 978 0 151-7 281t-31 299-66 311-115 296-174 278q-17 21-17 25Z"/></defs><use xlink:href="#a" transform="scale(1 -1)"/><use xlink:href="#b" transform="matrix(.707 0 0 -.707 562 -530.4)"/><use xlink:href="#c" transform="matrix(.707 0 0 -.707 837.023 -530.4)"/><use xlink:href="#d" transform="matrix(.707 0 0 -.707 1318.49 -530.4)"/><use xlink:href="#e" transform="matrix(.707 0 0 -.707 562 317.1)"/><use xlink:href="#f" transform="matrix(1 0 0 -1 1921.4 0)"/><use xlink:href="#g" transform="matrix(1 0 0 -1 2977.2 0)"/><use xlink:href="#h" transform="matrix(1 0 0 -1 3714.9 .5)"/><use xlink:href="#i" transform="matrix(1 0 0 -1 4311.9 0)"/><use xlink:href="#b" transform="matrix(.707 0 0 -.707 4809.9 -530.4)"/><use xlink:href="#c" transform="matrix(.707 0 0 -.707 5084.923 -530.4)"/><use xlink:href="#d" transform="matrix(.707 0 0 -.707 5566.39 -530.4)"/><use xlink:href="#e" transform="matrix(.707 0 0 -.707 4809.9 317.1)"/><use xlink:href="#j" transform="matrix(1 0 0 -1 5891.6 .5)"/><use xlink:href="#f" transform="matrix(1 0 0 -1 6766.3 0)"/><use xlink:href="#g" transform="matrix(1 0 0 -1 7822.1 0)"/><use xlink:href="#k" transform="matrix(1 0 0 -1 8559.8 .5)"/><use xlink:href="#l" transform="matrix(1 0 0 -1 9351.8 0)"/><use xlink:href="#b" transform="matrix(.707 0 0 -.707 9813.8 -530.4)"/><use xlink:href="#c" transform="matrix(.707 0 0 -.707 10088.823 -530.4)"/><use xlink:href="#d" transform="matrix(.707 0 0 -.707 10570.29 -530.4)"/><use xlink:href="#e" transform="matrix(.707 0 0 -.707 9813.8 317.1)"/><use xlink:href="#m" transform="matrix(1 0 0 -1 11117.7 0)"/><use xlink:href="#n" transform="matrix(1 0 0 -1 12321.6 0)"/><use xlink:href="#o" transform="matrix(.707 0 0 -.707 12446.1 1087.9)"/><use xlink:href="#f" transform="matrix(.707 0 0 -.707 12737.384 1087.9)"/><use xlink:href="#p" transform="matrix(.707 0 0 -.707 13287.43 1087.9)"/><use xlink:href="#q" transform="matrix(.707 0 0 -.707 12117.9 -1150)"/><use xlink:href="#b" transform="matrix(.49985 0 0 -.49985 12565.431 -1406.641)"/><use xlink:href="#c" transform="matrix(.49985 0 0 -.49985 12759.872 -1406.641)"/><use xlink:href="#r" transform="matrix(.49985 0 0 -.49985 13100.27 -1406.641)"/><use xlink:href="#p" transform="matrix(.49985 0 0 -.49985 13489.152 -1406.641)"/><use xlink:href="#d" transform="matrix(.49985 0 0 -.49985 13739.076 -1406.641)"/><use xlink:href="#s" transform="matrix(1 0 0 -1 14136 0)"/><use xlink:href="#b" transform="matrix(.707 0 0 -.707 14885 -530.4)"/><use xlink:href="#c" transform="matrix(.707 0 0 -.707 15160.023 -530.4)"/><use xlink:href="#d" transform="matrix(.707 0 0 -.707 15641.49 -530.4)"/><use xlink:href="#e" transform="matrix(.707 0 0 -.707 14885 317.1)"/><use xlink:href="#o" transform="matrix(.707 0 0 -.707 15253.347 317.1)"/><use xlink:href="#t" transform="matrix(1 0 0 -1 16188.9 0)"/><use xlink:href="#a" transform="matrix(1 0 0 -1 16689.1 0)"/><use xlink:href="#b" transform="matrix(.707 0 0 -.707 17251.1 -530.4)"/><use xlink:href="#c" transform="matrix(.707 0 0 -.707 17526.123 -530.4)"/><use xlink:href="#r" transform="matrix(.707 0 0 -.707 18007.59 -530.4)"/><use xlink:href="#p" transform="matrix(.707 0 0 -.707 18557.636 -530.4)"/><use xlink:href="#d" transform="matrix(.707 0 0 -.707 18911.136 -530.4)"/><use xlink:href="#o" transform="matrix(.707 0 0 -.707 17251.1 293.8)"/><use xlink:href="#u" transform="matrix(1 0 0 -1 19236.5 .5)"/></svg>
