<svg xmlns="http://www.w3.org/2000/svg" xmlns:xlink="http://www.w3.org/1999/xlink" width="509.77" height="218.27" viewBox="0 -6279.7 28164.6 12059.4" fill="white"><defs><path id="a" d="M202 508q-23 0-33 12t-11 27q0 10 6 30t21 47 45 51 71 35l32 5h12q33 0 39-1 63-11 105-53t60-93 17-111q0-95-47-217T402 53q-81-75-179-75-100 0-150 78-31 46-31 92v11q0 117 87 211t193 95q61 0 92-31t41-67l3 11q20 83 20 137 0 88-41 124t-93 37q-78 0-121-64 41-6 41-40 0-25-18-44t-44-20Zm228-202q0 66-29 94t-68 28q-63 0-111-46-25-28-39-59t-33-102q-18-72-18-105 0-95 100-95 12 0 18 1 77 13 124 90 15 25 35 84t21 110Z"/><path id="b" d="M50 252q0 115 67 221t169 168 204 63q90 0 143-51 9-10 15-17t8-10l1-3q3 0 27 26 7 6 15 14t16 16 10 11l15 15h6q14 0 14-7 0-4-32-137-36-139-36-140-2-5-5-6t-18-2h-16q-6 6-6 9 0 1 1 7t2 20 1 32q0 71-32 124t-109 54q-26 0-56-7t-72-24-83-56-73-93q-32-57-51-133t-19-124q0-114 76-164 48-34 118-34 91 0 162 68t94 148q4 13 6 15t16 2q20 0 20-9 0-5-1-9-29-107-124-184T319-22q-113 0-191 75T50 252Z"/><path id="c" d="M73 647q0 10 4 23t12 13q1 0 72 5t73 6q12 0 12-9t-34-143q-8-34-17-70t-15-54l-4-19q0-3 6 3 49 40 101 40 62 0 100-46t39-116q0-111-79-201T173-11q-50 0-91 38T40 150v9q0 21 8 58t49 197q50 197 50 209t-38 14H83q-3 0-7 3t-3 7Zm263-322v6q0 74-61 74-17 0-35-8t-33-21-26-24-18-22l-6-8-21-86q-22-86-22-122 0-48 24-72 16-16 40-16 33 0 67 32 25 23 40 56t33 105q18 72 18 106Z"/><path id="d" d="M94 250q0 69 10 131t23 107 37 88 38 67 42 52 33 34 25 21h17q14 0 14-9 0-3-17-21t-41-53-49-86-42-138-17-193 17-192 41-139 49-86 42-53 17-21q0-9-15-9h-16l-28 24q-94 85-137 212T94 250Z"/><path id="e" d="M228 637q-34 0-36 4-1 2-1 8 0 24 11 33 2 1 15 1 54-3 127-3 141 0 162 3h12q6-6 6-9t-2-18q-5-15-9-19h-38q-69-1-81-9-7-4-14-28t-67-264q-16-65-34-138T252 88l-9-36q0-4 9-4t59-2h17q32 0 51 1t49 7 50 18 44 34 42 55q16 30 30 67t17 42q5 3 17 3h13q6-9 6-11t-20-59-44-120-26-74q-2-5-4-6t-16-3-43-1h-76q-65 0-124 1H116Q32 0 32 10q0 7 2 14 5 19 10 21 4 1 15 1h6q27 0 60 3 14 3 19 12 3 4 72 278t69 289q0 7-57 9Z"/><path id="f" d="m60 749 4 1h22l28-24q94-85 137-212t43-264q0-68-10-131T261 12t-37-88-38-67-41-51-32-33-23-19l-4-4H63q-3 0-5 3t-3 9q1 1 11 13Q221-64 221 250T66 725q-10 12-11 13 0 8 5 11Z"/><path id="g" d="M121 647q0 10 4 23t12 13q1 0 72 5t73 6q12 0 12-8 0-7-50-209-50-198-50-205 19 10 29 19 24 18 69 63t70 61q40 27 76 27 30 0 47-19t18-54q0-25-7-42t-19-25-21-11-18-3q-20 0-32 11t-12 29q0 25 16 41t32 21l16 3q-12 12-24 12h-4q-32-3-63-25t-73-64-66-61q2-1 15-3t24-6 26-8 27-14 22-18 17-26 6-33q0-17-5-41t-6-40q0-40 27-40 48 0 78 119 2 8 20 8h4q16 0 16-9 0-5-3-14Q455-11 378-11q-45 0-73 26t-28 75q0 18 3 31t3 24q0 22-14 38t-35 23-34 11-18 3h-2q-12-42-21-81t-14-58-9-37-7-24-7-13-11-9q-13-9-28-9-17 0-26 10t-9 17q0 10 37 160t73 295l37 145q1 13-7 16t-39 5h-18q-3 0-7 3t-3 7Z"/><path id="h" d="M56 347q0 13 14 20h637q15-8 15-20 0-11-14-19l-318-1H72q-16 5-16 20Zm0-194q0 15 16 20h636q14-10 14-20 0-13-15-20H70q-14 7-14 20Z"/><path id="i" d="M33 157q0 101 76 192t171 92q51 0 90-49 16 30 46 30 13 0 23-8t10-20q0-13-37-160T374 68q0-25 7-33t21-9q9 1 20 9 21 20 41 96 6 20 10 21 2 1 10 1h4q19 0 19-9 0-6-5-27t-20-54-32-50Q436 0 417-8q-8-2-24-2-34 0-57 15t-30 31l-6 15q-1 1-4-1l-4-4q-59-56-120-56-55 0-97 40T33 157Zm318 171q0 6-5 22t-23 35-46 20q-35 0-67-31t-50-81q-29-79-41-164v-11q0-8-1-12 0-45 18-62t43-18q38 0 75 33t44 51q2 4 27 107t26 111Z"/><path id="j" d="M78 250q0 24 17 42t43 18q24 0 42-16t19-43q0-25-17-43t-43-18-43 17-18 43Z"/><path id="k" d="M184-11q-68 0-110 45T31 147q0 100 73 186t170 97q1 1 140 1h138q1-1 3-2t4-2 3-2 3-3 2-2 2-4 1-4 1-5 1-6q0-44-65-44h-17q-10 0-14 1h-60l5-10q18-38 18-85 0-110-80-192T184-11Zm177 289q0 80-85 80-124 0-161-174-1-4-1-6-8-37-8-61 0-50 25-70t57-21q54 0 99 47 29 30 47 80t22 80 5 45Z"/><path id="l" d="M79 43q-6 0-27 6T30 61q0 7 55 232t61 235q15 32 52 32 20 0 42-15t22-44q0-5-2-15-1-7-87-223T84 45t-5-2Z"/><path id="m" d="M180 96v154l25 291 61 229 87 174 91 125 83 81h28q6-6 6-9 0-4-16-21t-41-48-57-77-61-117-56-157-42-208-16-262q0-118 8-195 13-143 46-265t73-196 76-126 61-78 25-31q0-3-6-9h-28q-44 37-84 81t-90 125-87 173-61 229Z"/><path id="n" d="M347 338q-10 0-53 11t-63 11q-20 0-34-4t-23-10-12-11-7-11l-2-4q-3-3-15-3-21 0-21 8 0 5 3 14 13 39 43 67t66 34q12 2 17 2 25 0 45-17t38-33 38-17q22 0 44 33t23 33q1 1 15 1h13q6-6 6-8 0-4-5-14t-14-21-17-22-14-19l-7-9q-43-51-136-135T160 106l-12-12 15-1q22 0 64-11t63-11q38 0 70 19t42 50q4 9 7 11t15 2q19 0 19-10 0-5-1-9-17-62-66-103t-98-42q-26 0-46 17t-39 34-38 17q-44 0-79-60-6-8-17-8H41q-6 6-6 9 0 15 58 86 39 45 132 130t115 108q12 16 7 16Z"/><path id="o" d="M35 1138q0 12 16 12h18q44-37 84-81t90-125 87-173 61-230 25-291-25-290-61-230-87-173-91-125-83-81H56q-13 0-17 2t-4 10q30 30 75 89Q283-316 316 56q8 77 8 195 0 117-8 194-38 432-268 678-12 14-13 15Z"/><path id="q" d="M580 385q0 21 19 39t42 19q18 0 33-18t16-57q0-29-19-115-15-56-27-92t-35-81-55-68-72-23q-44 0-78 16t-49 43q-1-1-3-4-41-55-100-55-26 0-50 6t-47 19-37 39-14 63q0 54 34 146t35 117v14q0 3-4 7t-11 4h-4q-23 0-42-19t-30-41-17-42-8-22q-2-2-16-2H27q-6 6-6 9 0 6 8 28t23 51 44 52 65 23q43 0 66-25t23-58q0-18-33-108t-33-139q0-46 21-65t53-20q43 0 76 61l5 9v32q0 6 1 8t1 7 1 9 3 13 3 17 6 24 8 32 11 43q29 114 33 123 13 27 43 27 19 0 26-10t8-19q0-13-29-128t-32-132q-2-11-2-35v-7q0-15 3-29t19-29 45-16q71 0 113 122 9 23 20 65t12 60q0 33-13 52t-26 32-13 28Z"/><path id="r" d="M297 596q0 31 21 48t43 17q17 0 28-10t14-28q0-28-19-47t-44-19q-18 0-30 10t-13 29Zm-9-220q0 29-26 29-22 0-42-12t-35-31-24-37-17-32l-7-14q-2-1-16-1h-14q-6 6-6 8t4 13q21 49 59 92t88 50h8q7 0 12 1 24-1 44-10 25-14 38-31t13-53v-16l-49-199Q267-67 264-75q-18-50-70-89T75-204q-50 0-68 21t-19 46q0 27 19 46t46 20q17 0 29-10t13-31q0-36-32-55 6-1 14-1 34 0 62 28t43 66l11 42q11 43 26 104t32 125 27 111 11 57q0 7-1 11Z"/><path id="s" d="M84 237v13l14 20h581q15-8 15-20t-15-20H98q-14 7-14 20Z"/><path id="t" d="m213 578-13-5q-14-5-40-10t-58-7H83v46h19q47 2 87 15t56 24 28 22q2 3 12 3 9 0 17-6V361l1-300q7-7 12-9t24-4 62-2h26V0h-11q-21 3-159 3-136 0-157-3H88v46h64q16 0 25 1t16 3 8 2 6 5 6 4v517Z"/><path id="u" d="M60 948q3 2 605 2h602l58-135q59-138 63-146h-40l-7 14q-21 41-56 78-50 48-111 77t-141 43-151 17-183 4H251l8-11q463-633 465-639 1-2 0-6-3-3-264-302L196-356q0-1 211-1h141q89 0 128-1 136 0 220 5t167 21 141 49 103 87q21 26 41 72h40q0-1-7-21t-25-65-31-84l-58-155-601-1q-602 0-605 2-6 2-6 9 0 2 2 6l533 610q0 1-33 45T452 366 322 544L56 909l-1 15q0 21 5 24Z"/><path id="v" d="M21 287q1 6 3 16t12 38 20 47 33 37 46 17q36 0 60-18t30-34 6-21q0-2 1-2l11 11q61 64 139 64 54 0 87-27t34-79-38-157-38-127q0-26 17-26 6 0 9 1 29 5 52 38t35 80q2 8 20 8 20 0 20-8 0-1-4-15-8-29-22-57t-46-56-69-27q-47 0-68 27t-21 56q0 19 36 120t37 152q0 59-44 59h-5q-86 0-145-101l-7-12-33-134Q156 26 151 16q-13-27-43-27-13 0-21 6T76 7t-2 10q0 13 38 163t40 163q1 5 1 23 0 39-24 39-38 0-63-100-6-20-6-21-2-6-19-6H27q-6 6-6 9Z"/><path id="p" d="M25634.9-4654.1h2409.7v-60h-2409.7z"/></defs><use xlink:href="#a" transform="matrix(1 0 0 -1 611.8 -5110.1)"/><use xlink:href="#b" transform="matrix(1 0 0 -1 1177.8 -5110.1)"/><use xlink:href="#a" transform="matrix(1 0 0 -1 220 -3413.4)"/><use xlink:href="#c" transform="matrix(1 0 0 -1 786 -3413.4)"/><use xlink:href="#d" transform="matrix(.707 0 0 -.707 1248 -3943.8)"/><use xlink:href="#e" transform="matrix(.707 0 0 -.707 1523.023 -3943.8)"/><use xlink:href="#f" transform="matrix(.707 0 0 -.707 2004.49 -3943.8)"/><use xlink:href="#g" transform="matrix(.707 0 0 -.707 1248 -3096.3)"/><path d="M120-4654.1h2309.7v-60H120z"/><use xlink:href="#h" transform="matrix(1 0 0 -1 4081.2 -4434.1)"/><use xlink:href="#a" transform="matrix(1 0 0 -1 7634.2 -5219)"/><use xlink:href="#i" transform="matrix(1 0 0 -1 8200.2 -5219)"/><use xlink:href="#d" transform="matrix(.707 0 0 -.707 8762.2 -5749.4)"/><use xlink:href="#e" transform="matrix(.707 0 0 -.707 9037.223 -5749.4)"/><use xlink:href="#f" transform="matrix(.707 0 0 -.707 9518.69 -5749.4)"/><use xlink:href="#g" transform="matrix(.707 0 0 -.707 8762.2 -4901.9)"/><use xlink:href="#a" transform="matrix(1 0 0 -1 7684.2 -3413.4)"/><use xlink:href="#c" transform="matrix(1 0 0 -1 8250.2 -3413.4)"/><use xlink:href="#d" transform="matrix(.707 0 0 -.707 8712.2 -3943.8)"/><use xlink:href="#e" transform="matrix(.707 0 0 -.707 8987.223 -3943.8)"/><use xlink:href="#f" transform="matrix(.707 0 0 -.707 9468.69 -3943.8)"/><use xlink:href="#g" transform="matrix(.707 0 0 -.707 8712.2 -3096.3)"/><path d="M7534.2-4654.1h2409.7v-60H7534.2z"/><use xlink:href="#j" transform="matrix(1 0 0 -1 11189.8 -4434.1)"/><use xlink:href="#a" transform="matrix(1 0 0 -1 12351.8 -5110.1)"/><use xlink:href="#b" transform="matrix(1 0 0 -1 12917.8 -5110.1)"/><use xlink:href="#a" transform="matrix(1 0 0 -1 11910 -3413.4)"/><use xlink:href="#i" transform="matrix(1 0 0 -1 12476 -3413.4)"/><use xlink:href="#d" transform="matrix(.707 0 0 -.707 13038 -3943.8)"/><use xlink:href="#e" transform="matrix(.707 0 0 -.707 13313.023 -3943.8)"/><use xlink:href="#f" transform="matrix(.707 0 0 -.707 13794.49 -3943.8)"/><use xlink:href="#g" transform="matrix(.707 0 0 -.707 13038 -3096.3)"/><path d="M11810-4654.1h2409.7v-60H11810z"/><use xlink:href="#h" transform="matrix(1 0 0 -1 14867.5 -4434.1)"/><use xlink:href="#k" transform="matrix(1 0 0 -1 21003.7 -4434.1)"/><use xlink:href="#l" transform="matrix(.707 0 0 -.707 21607.7 -4847.1)"/><use xlink:href="#m" transform="matrix(1 0 0 -1 22018.8 -4433.6)"/><use xlink:href="#n" transform="matrix(1 0 0 -1 22615.8 -4434.1)"/><use xlink:href="#d" transform="matrix(.707 0 0 -.707 23113.8 -4964.5)"/><use xlink:href="#e" transform="matrix(.707 0 0 -.707 23388.823 -4964.5)"/><use xlink:href="#f" transform="matrix(.707 0 0 -.707 23870.29 -4964.5)"/><use xlink:href="#g" transform="matrix(.707 0 0 -.707 23113.8 -4117)"/><use xlink:href="#o" transform="matrix(1 0 0 -1 24195.5 -4433.6)"/><use xlink:href="#j" transform="matrix(1 0 0 -1 25014.7 -4434.1)"/><use xlink:href="#a" transform="matrix(1 0 0 -1 26176.7 -5110.1)"/><use xlink:href="#b" transform="matrix(1 0 0 -1 26742.7 -5110.1)"/><use xlink:href="#a" transform="matrix(1 0 0 -1 25734.9 -3413.4)"/><use xlink:href="#i" transform="matrix(1 0 0 -1 26300.9 -3413.4)"/><use xlink:href="#d" transform="matrix(.707 0 0 -.707 26862.9 -3943.8)"/><use xlink:href="#e" transform="matrix(.707 0 0 -.707 27137.923 -3943.8)"/><use xlink:href="#f" transform="matrix(.707 0 0 -.707 27619.39 -3943.8)"/><use xlink:href="#g" transform="matrix(.707 0 0 -.707 26862.9 -3096.3)"/><use xlink:href="#p"/><use xlink:href="#a" transform="matrix(1 0 0 -1 755.3 -818.8)"/><use xlink:href="#b" transform="matrix(1 0 0 -1 1321.3 -818.8)"/><use xlink:href="#a" transform="matrix(1 0 0 -1 220 877.9)"/><use xlink:href="#q" transform="matrix(1 0 0 -1 786 877.9)"/><use xlink:href="#d" transform="matrix(.707 0 0 -.707 1535 347.5)"/><use xlink:href="#e" transform="matrix(.707 0 0 -.707 1810.023 347.5)"/><use xlink:href="#f" transform="matrix(.707 0 0 -.707 2291.49 347.5)"/><use xlink:href="#g" transform="matrix(.707 0 0 -.707 1535 1195)"/><use xlink:href="#r" transform="matrix(.707 0 0 -.707 1903.347 1195)"/><path d="M120-362.8h2596.7v-60H120z"/><use xlink:href="#h" transform="matrix(1 0 0 -1 4081.2 -142.8)"/><use xlink:href="#a" transform="matrix(1 0 0 -1 7727.7 -927.7)"/><use xlink:href="#i" transform="matrix(1 0 0 -1 8293.7 -927.7)"/><use xlink:href="#d" transform="matrix(.707 0 0 -.707 8855.7 -1458.1)"/><use xlink:href="#e" transform="matrix(.707 0 0 -.707 9130.723 -1458.1)"/><use xlink:href="#f" transform="matrix(.707 0 0 -.707 9612.19 -1458.1)"/><use xlink:href="#g" transform="matrix(.707 0 0 -.707 8855.7 -610.6)"/><use xlink:href="#a" transform="matrix(1 0 0 -1 7634.2 877.9)"/><use xlink:href="#q" transform="matrix(1 0 0 -1 8200.2 877.9)"/><use xlink:href="#d" transform="matrix(.707 0 0 -.707 8949.2 347.5)"/><use xlink:href="#e" transform="matrix(.707 0 0 -.707 9224.223 347.5)"/><use xlink:href="#f" transform="matrix(.707 0 0 -.707 9705.69 347.5)"/><use xlink:href="#g" transform="matrix(.707 0 0 -.707 8949.2 1195)"/><use xlink:href="#r" transform="matrix(.707 0 0 -.707 9317.547 1195)"/><path d="M7534.2-362.8h2596.7v-60H7534.2z"/><use xlink:href="#j" transform="matrix(1 0 0 -1 11189.8 -142.8)"/><use xlink:href="#a" transform="matrix(1 0 0 -1 12351.8 -818.8)"/><use xlink:href="#b" transform="matrix(1 0 0 -1 12917.8 -818.8)"/><use xlink:href="#a" transform="matrix(1 0 0 -1 11910 877.9)"/><use xlink:href="#i" transform="matrix(1 0 0 -1 12476 877.9)"/><use xlink:href="#d" transform="matrix(.707 0 0 -.707 13038 347.5)"/><use xlink:href="#e" transform="matrix(.707 0 0 -.707 13313.023 347.5)"/><use xlink:href="#f" transform="matrix(.707 0 0 -.707 13794.49 347.5)"/><use xlink:href="#g" transform="matrix(.707 0 0 -.707 13038 1195)"/><path d="M11810-362.8h2409.7v-60H11810z"/><use xlink:href="#h" transform="matrix(1 0 0 -1 14867.5 -142.8)"/><use xlink:href="#i" transform="matrix(1 0 0 -1 16173.3 -142.8)"/><use xlink:href="#d" transform="matrix(.707 0 0 -.707 16735.3 -673.2)"/><use xlink:href="#e" transform="matrix(.707 0 0 -.707 17010.323 -673.2)"/><use xlink:href="#s" transform="matrix(.707 0 0 -.707 17491.79 -673.2)"/><use xlink:href="#t" transform="matrix(.707 0 0 -.707 18041.836 -673.2)"/><use xlink:href="#f" transform="matrix(.707 0 0 -.707 18395.336 -673.2)"/><use xlink:href="#r" transform="matrix(.707 0 0 -.707 16735.3 151)"/><use xlink:href="#j" transform="matrix(1 0 0 -1 20253.5 -142.8)"/><use xlink:href="#k" transform="matrix(1 0 0 -1 21003.7 -142.8)"/><use xlink:href="#l" transform="matrix(.707 0 0 -.707 21607.7 -555.8)"/><use xlink:href="#m" transform="matrix(1 0 0 -1 22018.8 -142.3)"/><use xlink:href="#n" transform="matrix(1 0 0 -1 22615.8 -142.8)"/><use xlink:href="#d" transform="matrix(.707 0 0 -.707 23113.8 -673.2)"/><use xlink:href="#e" transform="matrix(.707 0 0 -.707 23388.823 -673.2)"/><use xlink:href="#f" transform="matrix(.707 0 0 -.707 23870.29 -673.2)"/><use xlink:href="#g" transform="matrix(.707 0 0 -.707 23113.8 174.3)"/><use xlink:href="#o" transform="matrix(1 0 0 -1 24195.5 -142.3)"/><use xlink:href="#j" transform="matrix(1 0 0 -1 25014.7 -142.8)"/><use xlink:href="#a" transform="matrix(1 0 0 -1 26176.7 -818.8)"/><use xlink:href="#b" transform="matrix(1 0 0 -1 26742.7 -818.8)"/><use xlink:href="#a" transform="matrix(1 0 0 -1 25734.9 877.9)"/><use xlink:href="#i" transform="matrix(1 0 0 -1 26300.9 877.9)"/><use xlink:href="#d" transform="matrix(.707 0 0 -.707 26862.9 347.5)"/><use xlink:href="#e" transform="matrix(.707 0 0 -.707 27137.923 347.5)"/><use xlink:href="#f" transform="matrix(.707 0 0 -.707 27619.39 347.5)"/><use xlink:href="#g" transform="matrix(.707 0 0 -.707 26862.9 1195)"/><use xlink:href="#p" y="4291.3"/><use xlink:href="#a" transform="matrix(1 0 0 -1 1113.7 3644.9)"/><use xlink:href="#b" transform="matrix(1 0 0 -1 1679.7 3644.9)"/><use xlink:href="#a" transform="matrix(1 0 0 -1 220 5341.6)"/><use xlink:href="#i" transform="matrix(1 0 0 -1 786 5341.6)"/><use xlink:href="#d" transform="matrix(.707 0 0 -.707 1348 4811.2)"/><use xlink:href="#e" transform="matrix(.707 0 0 -.707 1623.023 4811.2)"/><use xlink:href="#s" transform="matrix(.707 0 0 -.707 2104.49 4811.2)"/><use xlink:href="#t" transform="matrix(.707 0 0 -.707 2654.536 4811.2)"/><use xlink:href="#f" transform="matrix(.707 0 0 -.707 3008.036 4811.2)"/><use xlink:href="#r" transform="matrix(.707 0 0 -.707 1348 5635.4)"/><path d="M120 4100.9h3313.4v-60H120z"/><use xlink:href="#h" transform="matrix(1 0 0 -1 4081.2 4320.9)"/><use xlink:href="#u" transform="matrix(1 0 0 -1 5553.6 4320.9)"/><use xlink:href="#g" transform="matrix(.707 0 0 -.707 5639.6 5428.6)"/><use xlink:href="#h" transform="matrix(.707 0 0 -.707 6007.947 5428.6)"/><use xlink:href="#t" transform="matrix(.707 0 0 -.707 6557.993 5428.6)"/><use xlink:href="#v" transform="matrix(.707 0 0 -.707 5669.4 3170.9)"/><use xlink:href="#d" transform="matrix(.4999 0 0 -.4998 6116.931 2914.259)"/><use xlink:href="#e" transform="matrix(.4999 0 0 -.4998 6311.372 2914.259)"/><use xlink:href="#f" transform="matrix(.4999 0 0 -.4998 6651.77 2914.259)"/><use xlink:href="#a" transform="matrix(1 0 0 -1 8086 3536)"/><use xlink:href="#i" transform="matrix(1 0 0 -1 8652 3536)"/><use xlink:href="#d" transform="matrix(.707 0 0 -.707 9214 3005.6)"/><use xlink:href="#e" transform="matrix(.707 0 0 -.707 9489.023 3005.6)"/><use xlink:href="#f" transform="matrix(.707 0 0 -.707 9970.49 3005.6)"/><use xlink:href="#g" transform="matrix(.707 0 0 -.707 9214 3853.1)"/><use xlink:href="#a" transform="matrix(1 0 0 -1 7634.2 5341.6)"/><use xlink:href="#i" transform="matrix(1 0 0 -1 8200.2 5341.6)"/><use xlink:href="#d" transform="matrix(.707 0 0 -.707 8762.2 4811.2)"/><use xlink:href="#e" transform="matrix(.707 0 0 -.707 9037.223 4811.2)"/><use xlink:href="#s" transform="matrix(.707 0 0 -.707 9518.69 4811.2)"/><use xlink:href="#t" transform="matrix(.707 0 0 -.707 10068.736 4811.2)"/><use xlink:href="#f" transform="matrix(.707 0 0 -.707 10422.236 4811.2)"/><use xlink:href="#r" transform="matrix(.707 0 0 -.707 8762.2 5635.4)"/><path d="M7534.2 4100.9h3313.4v-60H7534.2z"/><use xlink:href="#j" transform="matrix(1 0 0 -1 11189.8 4320.9)"/><use xlink:href="#a" transform="matrix(1 0 0 -1 12351.8 3644.9)"/><use xlink:href="#b" transform="matrix(1 0 0 -1 12917.8 3644.9)"/><use xlink:href="#a" transform="matrix(1 0 0 -1 11910 5341.6)"/><use xlink:href="#i" transform="matrix(1 0 0 -1 12476 5341.6)"/><use xlink:href="#d" transform="matrix(.707 0 0 -.707 13038 4811.2)"/><use xlink:href="#e" transform="matrix(.707 0 0 -.707 13313.023 4811.2)"/><use xlink:href="#f" transform="matrix(.707 0 0 -.707 13794.49 4811.2)"/><use xlink:href="#g" transform="matrix(.707 0 0 -.707 13038 5658.7)"/><path d="M11810 4100.9h2409.7v-60H11810z"/><use xlink:href="#h" transform="matrix(1 0 0 -1 14867.5 4320.9)"/><use xlink:href="#u" transform="matrix(1 0 0 -1 16339.9 4320.9)"/><use xlink:href="#g" transform="matrix(.707 0 0 -.707 16425.9 5428.6)"/><use xlink:href="#h" transform="matrix(.707 0 0 -.707 16794.247 5428.6)"/><use xlink:href="#t" transform="matrix(.707 0 0 -.707 17344.293 5428.6)"/><use xlink:href="#v" transform="matrix(.707 0 0 -.707 16455.7 3170.9)"/><use xlink:href="#d" transform="matrix(.4999 0 0 -.4998 16903.231 2914.259)"/><use xlink:href="#e" transform="matrix(.4999 0 0 -.4998 17097.672 2914.259)"/><use xlink:href="#f" transform="matrix(.4999 0 0 -.4998 17438.07 2914.259)"/><use xlink:href="#q" transform="matrix(1 0 0 -1 17950.6 4320.9)"/><use xlink:href="#d" transform="matrix(.707 0 0 -.707 18699.6 3790.5)"/><use xlink:href="#e" transform="matrix(.707 0 0 -.707 18974.623 3790.5)"/><use xlink:href="#f" transform="matrix(.707 0 0 -.707 19456.09 3790.5)"/><use xlink:href="#g" transform="matrix(.707 0 0 -.707 18699.6 4638)"/><use xlink:href="#r" transform="matrix(.707 0 0 -.707 19067.947 4638)"/><use xlink:href="#j" transform="matrix(1 0 0 -1 20253.5 4320.9)"/><use xlink:href="#k" transform="matrix(1 0 0 -1 21003.7 4320.9)"/><use xlink:href="#l" transform="matrix(.707 0 0 -.707 21607.7 3907.9)"/><use xlink:href="#m" transform="matrix(1 0 0 -1 22018.8 4321.4)"/><use xlink:href="#n" transform="matrix(1 0 0 -1 22615.8 4320.9)"/><use xlink:href="#d" transform="matrix(.707 0 0 -.707 23113.8 3790.5)"/><use xlink:href="#e" transform="matrix(.707 0 0 -.707 23388.823 3790.5)"/><use xlink:href="#f" transform="matrix(.707 0 0 -.707 23870.29 3790.5)"/><use xlink:href="#g" transform="matrix(.707 0 0 -.707 23113.8 4638)"/><use xlink:href="#o" transform="matrix(1 0 0 -1 24195.5 4321.4)"/><use xlink:href="#j" transform="matrix(1 0 0 -1 25014.7 4320.9)"/><use xlink:href="#a" transform="matrix(1 0 0 -1 26176.7 3644.9)"/><use xlink:href="#b" transform="matrix(1 0 0 -1 26742.7 3644.9)"/><use xlink:href="#a" transform="matrix(1 0 0 -1 25734.9 5341.6)"/><use xlink:href="#i" transform="matrix(1 0 0 -1 26300.9 5341.6)"/><use xlink:href="#d" transform="matrix(.707 0 0 -.707 26862.9 4811.2)"/><use xlink:href="#e" transform="matrix(.707 0 0 -.707 27137.923 4811.2)"/><use xlink:href="#f" transform="matrix(.707 0 0 -.707 27619.39 4811.2)"/><use xlink:href="#g" transform="matrix(.707 0 0 -.707 26862.9 5658.7)"/><use xlink:href="#p" y="8755"/></svg>
